<mxfile host="app.diagrams.net" modified="2022-08-05T15:44:20.463Z" agent="5.0 (Macintosh; Intel Mac OS X 10_15_7) AppleWebKit/537.36 (KHTML, like Gecko) Chrome/103.0.0.0 Safari/537.36" etag="iO_uILxHlOmHOhx0C1-U" version="20.2.3" type="github">
  <diagram id="B_SzXJe0JUNsXyjz7goi" name="Page-1">
    <mxGraphModel dx="1639" dy="874" grid="1" gridSize="10" guides="1" tooltips="1" connect="1" arrows="1" fold="1" page="1" pageScale="1" pageWidth="827" pageHeight="1169" math="0" shadow="0">
      <root>
        <mxCell id="0" />
        <mxCell id="1" parent="0" />
        <mxCell id="PNJjjt2BoBztEip2_fkG-2" value="Direction" style="rounded=0;whiteSpace=wrap;html=1;" vertex="1" parent="1">
          <mxGeometry x="190" y="430" width="110" height="40" as="geometry" />
        </mxCell>
        <mxCell id="PNJjjt2BoBztEip2_fkG-3" value="Places" style="rounded=0;whiteSpace=wrap;html=1;" vertex="1" parent="1">
          <mxGeometry x="190" y="260" width="110" height="40" as="geometry" />
        </mxCell>
        <mxCell id="PNJjjt2BoBztEip2_fkG-4" value="der markt" style="text;html=1;strokeColor=none;fillColor=none;align=center;verticalAlign=middle;whiteSpace=wrap;rounded=0;" vertex="1" parent="1">
          <mxGeometry x="384" y="180" width="86" height="30" as="geometry" />
        </mxCell>
        <mxCell id="PNJjjt2BoBztEip2_fkG-5" value="der park" style="text;html=1;strokeColor=none;fillColor=none;align=center;verticalAlign=middle;whiteSpace=wrap;rounded=0;" vertex="1" parent="1">
          <mxGeometry x="384" y="220" width="86" height="30" as="geometry" />
        </mxCell>
        <mxCell id="PNJjjt2BoBztEip2_fkG-6" value="das museum" style="text;html=1;strokeColor=none;fillColor=none;align=center;verticalAlign=middle;whiteSpace=wrap;rounded=0;" vertex="1" parent="1">
          <mxGeometry x="384" y="350" width="86" height="30" as="geometry" />
        </mxCell>
        <mxCell id="PNJjjt2BoBztEip2_fkG-7" value="das kino" style="text;html=1;strokeColor=none;fillColor=none;align=center;verticalAlign=middle;whiteSpace=wrap;rounded=0;" vertex="1" parent="1">
          <mxGeometry x="384" y="310" width="86" height="30" as="geometry" />
        </mxCell>
      </root>
    </mxGraphModel>
  </diagram>
</mxfile>
